REM DIRINDEX 1\8,1\2\11,1\3\12,1\3\14,1\5\15,1\5\16,1\6\17,1\6\18,1\4\19,1\4\20,1\4\21,1\4\22,1\7\23,1\7\24,1\7\25,1\2\9\26,1\2\9\27,1\2\10\28,1\2\10\29,1\2\10\30,1\2\10\31,1\2\10\32,1\3\13\33,1\3\13\34,1\3\13\35
REM DIRNAME folder01,folder02,folder03,folder04,folder05,folder06,folder07,folder08,folder09,folder10,folder11,folder12,folder13,folder14,folder15,folder16,folder17,folder18,folder19,folder20,folder21,folder22,folder23,folder24,folder25,folder26,folder27,folder28,folder29,folder30,folder31,folder32,folder33,folder34,folder35
TITLE ""
FILE "139 139_例文UNIT3_SET5.mp3" MP3
  TRACK 01 AUDIO
    TITLE "22:cjc123_3372"
    INDEX 01 00:00:00
  TRACK 02 AUDIO
    TITLE "0:"
    INDEX 01 00:02:53
  TRACK 03 AUDIO
    TITLE "19:cjc123_3373"
    INDEX 01 00:03:35
  TRACK 04 AUDIO
    TITLE "0:"
    INDEX 01 00:07:52
  TRACK 05 AUDIO
    TITLE "20:cjc123_3374"
    INDEX 01 00:08:07
  TRACK 06 AUDIO
    TITLE "0:"
    INDEX 01 00:13:10
  TRACK 07 AUDIO
    TITLE "21:cjc123_3375"
    INDEX 01 00:13:41
  TRACK 08 AUDIO
    TITLE "0:"
    INDEX 01 00:17:57
  TRACK 09 AUDIO
    TITLE "19:cjc123_3376"
    INDEX 01 00:18:31
  TRACK 10 AUDIO
    TITLE "0:"
    INDEX 01 00:22:70
  TRACK 11 AUDIO
    TITLE "20:cjc123_3377"
    INDEX 01 00:23:32
  TRACK 12 AUDIO
    TITLE "0:"
    INDEX 01 00:28:04
  TRACK 13 AUDIO
    TITLE "21:cjc123_3378"
    INDEX 01 00:28:31
  TRACK 14 AUDIO
    TITLE "0:"
    INDEX 01 00:32:66
  TRACK 15 AUDIO
    TITLE "19:cjc123_3379"
    INDEX 01 00:33:46
  TRACK 16 AUDIO
    TITLE "0:"
    INDEX 01 00:37:28
  TRACK 17 AUDIO
    TITLE "20:cjc123_3380"
    INDEX 01 00:37:61
  TRACK 18 AUDIO
    TITLE "0:"
    INDEX 01 00:42:33
  TRACK 19 AUDIO
    TITLE "21:cjc123_3381"
    INDEX 01 00:42:59
  TRACK 20 AUDIO
    TITLE "0:"
    INDEX 01 00:46:37
  TRACK 21 AUDIO
    TITLE "19:cjc123_3382"
    INDEX 01 00:47:17
  TRACK 22 AUDIO
    TITLE "0:"
    INDEX 01 00:50:58
  TRACK 23 AUDIO
    TITLE "20:cjc123_3383"
    INDEX 01 00:51:13
  TRACK 24 AUDIO
    TITLE "0:"
    INDEX 01 00:54:64
  TRACK 25 AUDIO
    TITLE "21:cjc123_3384"
    INDEX 01 00:55:24
  TRACK 26 AUDIO
    TITLE "0:"
    INDEX 01 00:58:66
  TRACK 27 AUDIO
    TITLE "19:cjc123_3385"
    INDEX 01 00:59:32
  TRACK 28 AUDIO
    TITLE "0:"
    INDEX 01 01:02:48
  TRACK 29 AUDIO
    TITLE "20:cjc123_3386"
    INDEX 01 01:03:10
  TRACK 30 AUDIO
    TITLE "0:"
    INDEX 01 01:05:40
  TRACK 31 AUDIO
    TITLE "21:cjc123_3387"
    INDEX 01 01:05:71
  TRACK 32 AUDIO
    TITLE "0:"
    INDEX 01 01:09:14
  TRACK 33 AUDIO
    TITLE "19:cjc123_3388"
    INDEX 01 01:09:63
  TRACK 34 AUDIO
    TITLE "0:"
    INDEX 01 01:13:44
  TRACK 35 AUDIO
    TITLE "20:cjc123_3389"
    INDEX 01 01:14:12
  TRACK 36 AUDIO
    TITLE "0:"
    INDEX 01 01:17:04
  TRACK 37 AUDIO
    TITLE "21:cjc123_3390"
    INDEX 01 01:17:32
  TRACK 38 AUDIO
    TITLE "0:"
    INDEX 01 01:21:10
  TRACK 39 AUDIO
    TITLE "19:cjc123_3391"
    INDEX 01 01:21:69
  TRACK 40 AUDIO
    TITLE "0:"
    INDEX 01 01:24:55
  TRACK 41 AUDIO
    TITLE "20:cjc123_3392"
    INDEX 01 01:25:11
  TRACK 42 AUDIO
    TITLE "0:"
    INDEX 01 01:27:46
  TRACK 43 AUDIO
    TITLE "21:cjc123_3393"
    INDEX 01 01:28:00
  TRACK 44 AUDIO
    TITLE "0:"
    INDEX 01 01:30:64
  TRACK 45 AUDIO
    TITLE "19:cjc123_3394"
    INDEX 01 01:31:36
  TRACK 46 AUDIO
    TITLE "0:"
    INDEX 01 01:35:27
  TRACK 47 AUDIO
    TITLE "20:cjc123_3395"
    INDEX 01 01:35:67
  TRACK 48 AUDIO
    TITLE "0:"
    INDEX 01 01:39:10
  TRACK 49 AUDIO
    TITLE "21:cjc123_3396"
    INDEX 01 01:39:37
  TRACK 50 AUDIO
    TITLE "0:"
    INDEX 01 01:43:27
  TRACK 51 AUDIO
    TITLE "19:cjc123_3397"
    INDEX 01 01:44:17
  TRACK 52 AUDIO
    TITLE "0:"
    INDEX 01 01:47:25
  TRACK 53 AUDIO
    TITLE "20:cjc123_3398"
    INDEX 01 01:47:62
  TRACK 54 AUDIO
    TITLE "0:"
    INDEX 01 01:51:13
  TRACK 55 AUDIO
    TITLE "21:cjc123_3399"
    INDEX 01 01:51:58
  TRACK 56 AUDIO
    TITLE "0:"
    INDEX 01 01:54:66
  TRACK 57 AUDIO
    TITLE "19:cjc123_3400"
    INDEX 01 01:55:38
  TRACK 58 AUDIO
    TITLE "0:"
    INDEX 01 01:59:28
  TRACK 59 AUDIO
    TITLE "20:cjc123_3401"
    INDEX 01 01:59:69
  TRACK 60 AUDIO
    TITLE "0:"
    INDEX 01 02:03:08
  TRACK 61 AUDIO
    TITLE "19:cjc123_3402"
    INDEX 01 02:03:57
  TRACK 62 AUDIO
    TITLE "0:"
    INDEX 01 02:07:16
  TRACK 63 AUDIO
    TITLE "20:cjc123_3403"
    INDEX 01 02:07:49
  TRACK 64 AUDIO
    TITLE "0:"
    INDEX 01 02:10:73
  TRACK 65 AUDIO
    TITLE "21:cjc123_3404"
    INDEX 01 02:11:29
  TRACK 66 AUDIO
    TITLE "0:"
    INDEX 01 02:14:63
  TRACK 67 AUDIO
    TITLE "19:cjc123_3405"
    INDEX 01 02:15:41
  TRACK 68 AUDIO
    TITLE "0:"
    INDEX 01 02:18:63
  TRACK 69 AUDIO
    TITLE "20:cjc123_3406"
    INDEX 01 02:19:19
  TRACK 70 AUDIO
    TITLE "0:"
    INDEX 01 02:23:13
  TRACK 71 AUDIO
    TITLE "21:cjc123_3407"
    INDEX 01 02:23:42
  TRACK 72 AUDIO
    TITLE "0:"
    INDEX 01 02:26:60
  TRACK 73 AUDIO
    TITLE "19:cjc123_3408"
    INDEX 01 02:27:36
  TRACK 74 AUDIO
    TITLE "0:"
    INDEX 01 02:30:40
  TRACK 75 AUDIO
    TITLE "20:cjc123_3409"
    INDEX 01 02:30:72
  TRACK 76 AUDIO
    TITLE "0:"
    INDEX 01 02:34:28
  TRACK 77 AUDIO
    TITLE "21:cjc123_3410"
    INDEX 01 02:34:56
  TRACK 78 AUDIO
    TITLE "0:"
    INDEX 01 02:37:58
  TRACK 79 AUDIO
    TITLE "19:cjc123_3411"
    INDEX 01 02:38:32
  TRACK 80 AUDIO
    TITLE "0:"
    INDEX 01 02:41:28
  TRACK 81 AUDIO
    TITLE "20:cjc123_3412"
    INDEX 01 02:41:73
  TRACK 82 AUDIO
    TITLE "0:"
    INDEX 01 02:45:22
  TRACK 83 AUDIO
    TITLE "21:cjc123_3413"
    INDEX 01 02:45:50
  TRACK 84 AUDIO
    TITLE "0:"
    INDEX 01 02:48:46
  TRACK 85 AUDIO
    TITLE "19:cjc123_3414"
    INDEX 01 02:49:38
  TRACK 86 AUDIO
    TITLE "0:"
    INDEX 01 02:52:07
  TRACK 87 AUDIO
    TITLE "20:cjc123_3415"
    INDEX 01 02:52:38
  TRACK 88 AUDIO
    TITLE "0:"
    INDEX 01 02:55:46
  TRACK 89 AUDIO
    TITLE "21:cjc123_3416"
    INDEX 01 02:55:74
  TRACK 90 AUDIO
    TITLE "0:"
    INDEX 01 02:58:42
